<svg id="svg" version="1.1" xmlns="http://www.w3.org/2000/svg" xmlns:xlink="http://www.w3.org/1999/xlink" width="400" height="400" viewBox="0, 0, 400,400"><g id="svgg"><path id="path0" d="M139.500 86.989 L 139.500 101.478 136.411 99.482 C 116.829 86.825,90.881 104.651,95.697 127.453 C 101.655 155.664,141.637 156.422,148.231 128.448 C 148.853 125.812,148.987 120.614,148.993 98.875 L 149.000 72.500 144.250 72.500 L 139.500 72.500 139.500 86.989 M155.500 78.750 L 155.500 85.000 160.250 85.000 L 165.000 85.000 165.000 78.750 L 165.000 72.500 160.250 72.500 L 155.500 72.500 155.500 78.750 M336.111 105.125 L 336.250 137.750 337.659 140.619 C 340.024 145.436,345.594 149.000,350.755 149.000 L 353.000 149.000 353.000 144.564 L 353.000 140.128 350.933 139.797 C 349.537 139.574,348.321 138.921,347.183 137.783 L 345.500 136.100 345.500 104.300 L 345.500 72.500 340.736 72.500 L 335.972 72.500 336.111 105.125 M47.000 110.500 L 47.000 148.000 70.500 148.000 L 94.000 148.000 94.000 143.500 L 94.000 139.000 75.250 139.000 L 56.500 139.000 56.500 127.250 L 56.500 115.500 72.750 115.500 L 89.000 115.500 89.000 110.750 L 89.000 106.000 72.750 106.000 L 56.500 106.000 56.500 94.250 L 56.500 82.500 75.250 82.500 L 94.000 82.500 94.000 77.750 L 94.000 73.000 70.500 73.000 L 47.000 73.000 47.000 110.500 M171.111 74.108 C 171.522 74.736,173.653 78.400,175.845 82.250 C 178.037 86.100,182.460 93.796,185.672 99.352 C 188.885 104.908,191.634 109.766,191.780 110.148 C 191.926 110.529,187.311 119.081,181.523 129.151 C 175.735 139.221,171.000 147.694,171.000 147.980 C 171.000 148.307,172.945 148.500,176.240 148.500 L 181.480 148.500 182.975 145.875 C 183.798 144.431,187.458 138.058,191.110 131.713 L 197.750 120.176 205.766 134.213 L 213.781 148.250 219.141 148.392 C 222.479 148.480,224.500 148.345,224.500 148.033 C 224.500 147.758,219.765 139.277,213.977 129.186 C 208.190 119.096,203.573 110.530,203.719 110.151 C 203.993 109.436,223.115 76.115,224.393 74.125 L 225.115 73.000 219.431 73.000 L 213.746 73.000 205.772 87.008 C 200.718 95.887,197.660 100.784,197.419 100.383 C 197.211 100.035,193.589 93.787,189.370 86.500 L 181.700 73.250 176.031 73.108 L 170.363 72.966 171.111 74.108 M295.314 96.055 C 271.501 101.647,268.466 135.882,290.830 146.627 L 295.250 148.750 302.250 148.750 L 309.250 148.750 313.500 146.640 C 315.837 145.480,318.256 144.159,318.875 143.704 L 320.000 142.878 320.000 145.439 L 320.000 148.000 324.793 148.000 L 329.587 148.000 329.385 132.625 C 329.200 118.512,329.094 116.980,328.099 113.964 C 323.680 100.571,309.371 92.754,295.314 96.055 M155.500 122.500 L 155.500 148.500 160.250 148.500 L 165.000 148.500 165.000 122.500 L 165.000 96.500 160.250 96.500 L 155.500 96.500 155.500 122.500 M227.500 113.225 C 227.500 123.618,227.711 130.954,228.058 132.600 C 232.106 151.825,258.175 155.193,266.867 137.613 L 268.750 133.805 268.898 115.152 L 269.046 96.500 264.523 96.500 L 260.000 96.500 260.000 112.659 C 260.000 125.432,259.846 129.335,259.264 131.284 C 256.209 141.525,242.400 142.474,237.939 132.750 C 237.107 130.935,237.021 129.162,237.011 113.625 L 237.000 96.500 232.250 96.500 L 227.500 96.500 227.500 113.225 M129.892 106.676 C 145.954 114.935,140.778 138.660,122.750 139.418 C 106.395 140.106,98.286 120.521,110.358 109.488 C 115.554 104.739,123.814 103.550,129.892 106.676 M308.707 106.027 C 317.984 109.498,322.468 120.749,318.107 129.609 C 309.951 146.177,284.753 140.612,284.785 122.250 C 284.807 110.039,297.117 101.691,308.707 106.027 M0.500 173.250 C 0.500 173.915,22.972 174.000,199.750 174.000 C 376.528 174.000,399.000 173.915,399.000 173.250 C 399.000 172.585,376.528 172.500,199.750 172.500 C 22.972 172.500,0.500 172.585,0.500 173.250 M56.136 199.218 C 33.848 204.619,25.937 234.569,42.448 251.043 C 53.076 261.647,71.268 262.727,83.004 253.450 L 85.500 251.477 85.500 254.988 L 85.500 258.500 92.500 258.500 L 99.500 258.500 99.500 250.919 L 99.500 243.338 104.020 250.924 L 108.539 258.509 135.111 258.379 L 161.682 258.250 164.466 252.128 L 167.250 246.006 175.325 246.003 L 183.401 246.000 186.422 252.250 L 189.443 258.500 201.972 258.500 L 214.500 258.500 214.500 236.250 L 214.500 214.000 219.500 214.000 L 224.500 214.000 224.500 236.250 L 224.500 258.500 231.500 258.500 L 238.500 258.500 238.500 251.382 L 238.500 244.263 240.212 246.805 C 250.389 261.918,273.346 264.168,286.815 251.373 L 290.500 247.873 290.500 253.186 L 290.500 258.500 297.492 258.500 L 304.484 258.500 304.617 245.164 L 304.750 231.827 319.000 245.426 L 333.250 259.024 333.500 256.280 L 333.750 253.537 335.958 255.024 C 348.902 263.740,366.195 255.302,366.236 240.250 C 366.262 230.755,361.661 225.188,350.733 221.494 C 345.708 219.796,344.500 218.915,344.500 216.951 C 344.500 213.186,349.938 213.188,352.322 216.953 L 353.265 218.443 358.896 215.308 C 366.167 211.260,365.930 211.555,364.076 208.860 C 357.142 198.783,343.632 196.812,335.308 204.663 L 333.500 206.368 333.500 203.184 L 333.500 200.000 326.258 200.000 L 319.017 200.000 318.883 212.941 L 318.750 225.881 305.000 212.708 C 297.438 205.463,291.081 199.527,290.875 199.517 C 290.669 199.508,290.500 201.891,290.500 204.814 L 290.500 210.127 286.815 206.627 C 273.596 194.070,251.579 195.905,241.000 210.444 L 238.750 213.537 238.611 206.768 L 238.472 200.000 214.486 200.000 L 190.500 200.000 190.500 207.000 L 190.500 214.000 195.500 214.000 L 200.500 214.000 200.488 231.375 L 200.475 248.750 194.714 237.500 C 191.545 231.313,185.888 220.225,182.141 212.862 C 178.395 205.498,175.128 199.541,174.881 199.623 C 174.634 199.705,169.528 209.780,163.534 222.011 L 152.636 244.250 142.818 244.386 L 133.000 244.521 133.000 240.761 L 133.000 237.000 140.250 237.000 L 147.500 237.000 147.500 229.750 L 147.500 222.500 140.250 222.500 L 133.000 222.500 133.000 218.500 L 133.000 214.500 142.750 214.500 L 152.500 214.500 152.500 207.250 L 152.500 200.000 135.750 200.000 L 119.000 200.000 119.000 204.470 L 119.000 208.940 116.420 206.212 C 114.815 204.516,112.598 202.872,110.558 201.867 L 107.276 200.250 96.412 200.090 L 85.547 199.931 85.399 203.205 L 85.250 206.480 83.000 204.690 C 76.115 199.211,65.276 197.004,56.136 199.218 M71.250 214.473 C 72.625 215.140,74.991 216.965,76.508 218.528 L 79.265 221.370 82.383 219.139 L 85.500 216.907 85.500 228.481 L 85.500 240.055 82.702 238.051 L 79.903 236.047 77.156 239.015 C 66.234 250.812,48.250 244.580,48.254 229.000 C 48.256 216.877,60.397 209.207,71.250 214.473 M340.250 232.877 C 341.350 233.419,344.106 234.474,346.376 235.222 C 352.075 237.101,353.920 240.417,350.683 242.964 C 347.847 245.194,343.940 243.579,342.309 239.502 C 341.422 237.286,340.810 237.138,335.875 237.951 L 333.500 238.341 333.500 233.141 L 333.500 227.940 335.875 229.916 C 337.181 231.003,339.150 232.335,340.250 232.877 M118.895 243.579 L 118.750 247.609 115.524 242.256 C 112.483 237.210,112.354 236.872,113.274 236.370 C 113.811 236.078,115.263 234.806,116.500 233.544 L 118.750 231.250 118.895 235.400 C 118.974 237.682,118.974 241.363,118.895 243.579 " stroke="none" fill="#000000" fill-rule="evenodd"></path></g></svg>